<svg width="194" height="47" viewBox="0 0 194 47" fill="none" xmlns="http://www.w3.org/2000/svg">
<path d="M1.2642 21V6.45455H7.00284C8.10606 6.45455 9.04593 6.66525 9.82244 7.08665C10.599 7.50331 11.1908 8.08333 11.598 8.8267C12.0099 9.56534 12.2159 10.4176 12.2159 11.3835C12.2159 12.3494 12.0076 13.2017 11.5909 13.9403C11.1742 14.679 10.5705 15.2543 9.77983 15.6662C8.99384 16.0781 8.04214 16.2841 6.92472 16.2841H3.26705V13.8196H6.42756C7.01941 13.8196 7.5071 13.7178 7.89062 13.5142C8.27888 13.3059 8.56771 13.0194 8.7571 12.6548C8.95123 12.2855 9.0483 11.8617 9.0483 11.3835C9.0483 10.9006 8.95123 10.4792 8.7571 10.1193C8.56771 9.75473 8.27888 9.47301 7.89062 9.27415C7.50237 9.07055 7.00994 8.96875 6.41335 8.96875H4.33949V21H1.2642ZM14.2134 21V6.45455H19.9521C21.0505 6.45455 21.988 6.65104 22.7646 7.04403C23.5458 7.43229 24.14 7.9839 24.5472 8.69886C24.9592 9.40909 25.1651 10.2448 25.1651 11.206C25.1651 12.1719 24.9568 13.0028 24.5401 13.6989C24.1235 14.3902 23.5198 14.9205 22.729 15.2898C21.9431 15.6591 20.9914 15.8438 19.8739 15.8438H16.0316V13.3722H19.3768C19.9639 13.3722 20.4516 13.2917 20.8398 13.1307C21.2281 12.9697 21.5169 12.7282 21.7063 12.4062C21.9004 12.0843 21.9975 11.6842 21.9975 11.206C21.9975 10.723 21.9004 10.3158 21.7063 9.98438C21.5169 9.65294 21.2257 9.40199 20.8327 9.23153C20.4445 9.05634 19.9544 8.96875 19.3626 8.96875H17.2887V21H14.2134ZM22.0685 14.3807L25.6836 21H22.2887L18.7518 14.3807H22.0685ZM30.4137 6.45455V21H27.3384V6.45455H30.4137ZM32.9439 6.45455H36.7365L40.7422 16.2273H40.9126L44.9183 6.45455H48.7109V21H45.728V11.5327H45.6072L41.843 20.929H39.8118L36.0476 11.4972H35.9268V21H32.9439V6.45455ZM51.2447 21V6.45455H61.0458V8.99006H54.32V12.456H60.5415V14.9915H54.32V18.4645H61.0742V21H51.2447Z" fill="#0069FF"/>
<path d="M67.1591 43.1863V34.459H69.9759C70.5952 34.459 71.1122 34.5712 71.527 34.7957C71.9446 35.0172 72.2585 35.3255 72.4688 35.7204C72.6818 36.1124 72.7884 36.5627 72.7884 37.0712C72.7884 37.5797 72.6818 38.0286 72.4688 38.4178C72.2585 38.807 71.946 39.111 71.5312 39.3297C71.1165 39.5485 70.6023 39.6579 69.9886 39.6579H67.5895V38.9292H69.9673C70.4219 38.9292 70.7997 38.8539 71.1009 38.7033C71.4048 38.5528 71.6307 38.3383 71.7784 38.0599C71.929 37.7815 72.0043 37.4519 72.0043 37.0712C72.0043 36.6905 71.929 36.3582 71.7784 36.0741C71.6278 35.7871 71.4006 35.5655 71.0966 35.4093C70.7955 35.253 70.4148 35.1749 69.9545 35.1749H67.956V43.1863H67.1591ZM71.0071 39.2488L73.1548 43.1863H72.2344L70.108 39.2488H71.0071ZM74.7294 43.1863V34.459H79.7919V35.1749H75.5263V38.4604H79.5234V39.1763H75.5263V42.4704H79.8771V43.1863H74.7294ZM81.8672 43.1863H81.032L84.2067 34.459H85.0589L88.2337 43.1863H87.3984L84.6626 35.4945H84.603L81.8672 43.1863ZM82.468 39.8411H86.7976V40.557H82.468V39.8411ZM89.7294 43.1863V34.459H90.5263V42.4704H94.6854V43.1863H89.7294ZM94.7908 35.1749V34.459H101.119V35.1749H98.3533V43.1863H97.5565V35.1749H94.7908ZM109.705 38.8226C109.705 39.7317 109.543 40.5229 109.219 41.1962C108.895 41.8667 108.449 42.3866 107.881 42.7559C107.315 43.1224 106.665 43.3056 105.929 43.3056C105.193 43.3056 104.541 43.1224 103.973 42.7559C103.408 42.3866 102.963 41.8667 102.639 41.1962C102.318 40.5229 102.158 39.7317 102.158 38.8226C102.158 37.9136 102.318 37.1238 102.639 36.4533C102.963 35.78 103.409 35.2601 103.977 34.8937C104.545 34.5244 105.196 34.3397 105.929 34.3397C106.665 34.3397 107.315 34.5244 107.881 34.8937C108.449 35.2601 108.895 35.78 109.219 36.4533C109.543 37.1238 109.705 37.9136 109.705 38.8226ZM108.929 38.8226C108.929 38.0414 108.798 37.3724 108.537 36.8155C108.276 36.2559 107.919 35.8283 107.467 35.5329C107.016 35.2374 106.503 35.0897 105.929 35.0897C105.358 35.0897 104.847 35.2374 104.395 35.5329C103.943 35.8283 103.585 36.2545 103.321 36.8113C103.06 37.3681 102.929 38.0386 102.929 38.8226C102.929 39.6039 103.06 40.2729 103.321 40.8297C103.582 41.3866 103.939 41.8141 104.391 42.1124C104.842 42.4079 105.355 42.5556 105.929 42.5556C106.503 42.5556 107.016 42.4079 107.467 42.1124C107.922 41.817 108.28 41.3908 108.541 40.834C108.803 40.2744 108.932 39.6039 108.929 38.8226ZM111.632 43.1863V34.459H114.449C115.068 34.459 115.585 34.5712 116 34.7957C116.417 35.0172 116.731 35.3255 116.941 35.7204C117.154 36.1124 117.261 36.5627 117.261 37.0712C117.261 37.5797 117.154 38.0286 116.941 38.4178C116.731 38.807 116.419 39.111 116.004 39.3297C115.589 39.5485 115.075 39.6579 114.461 39.6579H112.062V38.9292H114.44C114.895 38.9292 115.272 38.8539 115.574 38.7033C115.877 38.5528 116.103 38.3383 116.251 38.0599C116.402 37.7815 116.477 37.4519 116.477 37.0712C116.477 36.6905 116.402 36.3582 116.251 36.0741C116.1 35.7871 115.873 35.5655 115.569 35.4093C115.268 35.253 114.887 35.1749 114.427 35.1749H112.429V43.1863H111.632ZM115.48 39.2488L117.627 43.1863H116.707L114.581 39.2488H115.48ZM123.941 36.6408C123.892 36.155 123.678 35.7687 123.297 35.4817C122.917 35.1948 122.438 35.0513 121.861 35.0513C121.455 35.0513 121.097 35.1209 120.787 35.2601C120.48 35.3994 120.239 35.5925 120.063 35.8397C119.89 36.084 119.803 36.3624 119.803 36.6749C119.803 36.905 119.853 37.1067 119.952 37.28C120.051 37.4533 120.185 37.6025 120.353 37.7275C120.523 37.8496 120.711 37.9547 120.915 38.0428C121.123 38.1309 121.331 38.2047 121.542 38.2644L122.462 38.5286C122.74 38.6053 123.019 38.7033 123.297 38.8226C123.576 38.942 123.83 39.0925 124.06 39.2744C124.293 39.4533 124.479 39.6735 124.618 39.9349C124.76 40.1934 124.831 40.5045 124.831 40.8681C124.831 41.334 124.711 41.753 124.469 42.1252C124.228 42.4974 123.881 42.7928 123.429 43.0116C122.978 43.2275 122.436 43.3354 121.806 43.3354C121.212 43.3354 120.696 43.2374 120.259 43.0414C119.821 42.8425 119.478 42.5684 119.228 42.219C118.978 41.8695 118.837 41.4647 118.806 41.0045H119.624C119.652 41.3482 119.766 41.6394 119.965 41.878C120.164 42.1167 120.422 42.2985 120.74 42.4235C121.059 42.5457 121.414 42.6067 121.806 42.6067C122.24 42.6067 122.627 42.5343 122.965 42.3894C123.306 42.2417 123.573 42.0371 123.766 41.7758C123.962 41.5116 124.06 41.2047 124.06 40.8553C124.06 40.5599 123.983 40.3127 123.83 40.1138C123.676 39.9121 123.462 39.7431 123.186 39.6067C122.914 39.4704 122.597 39.3496 122.236 39.2445L121.192 38.9377C120.507 38.7332 119.976 38.4505 119.598 38.0897C119.221 37.7289 119.032 37.2687 119.032 36.709C119.032 36.2403 119.157 35.8283 119.407 35.4732C119.659 35.1153 120 34.8369 120.429 34.638C120.861 34.4363 121.346 34.3354 121.882 34.3354C122.425 34.3354 122.905 34.4349 123.323 34.6337C123.74 34.8326 124.071 35.1067 124.316 35.4562C124.563 35.8028 124.695 36.1976 124.712 36.6408H123.941Z" fill="#0069FF"/>
<rect width="128" height="28" transform="translate(66)" fill="#0069FF"/>
<path d="M77.2642 21V6.45455H83.0028C84.1061 6.45455 85.0459 6.66525 85.8224 7.08665C86.599 7.50331 87.1908 8.08333 87.598 8.8267C88.0099 9.56534 88.2159 10.4176 88.2159 11.3835C88.2159 12.3494 88.0076 13.2017 87.5909 13.9403C87.1742 14.679 86.5705 15.2543 85.7798 15.6662C84.9938 16.0781 84.0421 16.2841 82.9247 16.2841H79.267V13.8196H82.4276C83.0194 13.8196 83.5071 13.7178 83.8906 13.5142C84.2789 13.3059 84.5677 13.0194 84.7571 12.6548C84.9512 12.2855 85.0483 11.8617 85.0483 11.3835C85.0483 10.9006 84.9512 10.4792 84.7571 10.1193C84.5677 9.75473 84.2789 9.47301 83.8906 9.27415C83.5024 9.07055 83.0099 8.96875 82.4134 8.96875H80.3395V21H77.2642ZM90.2134 21V6.45455H95.9521C97.0505 6.45455 97.988 6.65104 98.7646 7.04403C99.5458 7.43229 100.14 7.9839 100.547 8.69886C100.959 9.40909 101.165 10.2448 101.165 11.206C101.165 12.1719 100.957 13.0028 100.54 13.6989C100.123 14.3902 99.5198 14.9205 98.729 15.2898C97.9431 15.6591 96.9914 15.8438 95.8739 15.8438H92.0316V13.3722H95.3768C95.9639 13.3722 96.4516 13.2917 96.8398 13.1307C97.2281 12.9697 97.5169 12.7282 97.7063 12.4062C97.9004 12.0843 97.9975 11.6842 97.9975 11.206C97.9975 10.723 97.9004 10.3158 97.7063 9.98438C97.5169 9.65294 97.2257 9.40199 96.8327 9.23153C96.4445 9.05634 95.9544 8.96875 95.3626 8.96875H93.2887V21H90.2134ZM98.0685 14.3807L101.684 21H98.2887L94.7518 14.3807H98.0685ZM116.705 13.7273C116.705 15.3134 116.404 16.6629 115.803 17.7756C115.206 18.8883 114.392 19.7382 113.36 20.3253C112.332 20.9077 111.177 21.1989 109.894 21.1989C108.601 21.1989 107.441 20.9053 106.414 20.3182C105.386 19.7311 104.574 18.8812 103.978 17.7685C103.381 16.6558 103.083 15.3087 103.083 13.7273C103.083 12.1411 103.381 10.7917 103.978 9.67898C104.574 8.56629 105.386 7.71875 106.414 7.13636C107.441 6.54924 108.601 6.25568 109.894 6.25568C111.177 6.25568 112.332 6.54924 113.36 7.13636C114.392 7.71875 115.206 8.56629 115.803 9.67898C116.404 10.7917 116.705 12.1411 116.705 13.7273ZM113.587 13.7273C113.587 12.6998 113.433 11.8333 113.125 11.1278C112.822 10.4223 112.394 9.88731 111.84 9.52273C111.286 9.15814 110.637 8.97585 109.894 8.97585C109.15 8.97585 108.502 9.15814 107.948 9.52273C107.394 9.88731 106.963 10.4223 106.655 11.1278C106.352 11.8333 106.201 12.6998 106.201 13.7273C106.201 14.7547 106.352 15.6212 106.655 16.3267C106.963 17.0322 107.394 17.5672 107.948 17.9318C108.502 18.2964 109.15 18.4787 109.894 18.4787C110.637 18.4787 111.286 18.2964 111.84 17.9318C112.394 17.5672 112.822 17.0322 113.125 16.3267C113.433 15.6212 113.587 14.7547 113.587 13.7273ZM118.983 21V6.45455H124.722C125.825 6.45455 126.765 6.66525 127.541 7.08665C128.318 7.50331 128.91 8.08333 129.317 8.8267C129.729 9.56534 129.935 10.4176 129.935 11.3835C129.935 12.3494 129.726 13.2017 129.31 13.9403C128.893 14.679 128.289 15.2543 127.499 15.6662C126.713 16.0781 125.761 16.2841 124.643 16.2841H120.986V13.8196H124.146C124.738 13.8196 125.226 13.7178 125.609 13.5142C125.998 13.3059 126.286 13.0194 126.476 12.6548C126.67 12.2855 126.767 11.8617 126.767 11.3835C126.767 10.9006 126.67 10.4792 126.476 10.1193C126.286 9.75473 125.998 9.47301 125.609 9.27415C125.221 9.07055 124.729 8.96875 124.132 8.96875H122.058V21H118.983ZM131.932 21V6.45455H141.733V8.99006H135.007V12.456H141.229V14.9915H135.007V18.4645H141.762V21H131.932ZM144.178 21V6.45455H149.917C151.015 6.45455 151.953 6.65104 152.729 7.04403C153.511 7.43229 154.105 7.9839 154.512 8.69886C154.924 9.40909 155.13 10.2448 155.13 11.206C155.13 12.1719 154.922 13.0028 154.505 13.6989C154.088 14.3902 153.485 14.9205 152.694 15.2898C151.908 15.6591 150.956 15.8438 149.839 15.8438H145.996V13.3722H149.342C149.929 13.3722 150.416 13.2917 150.805 13.1307C151.193 12.9697 151.482 12.7282 151.671 12.4062C151.865 12.0843 151.962 11.6842 151.962 11.206C151.962 10.723 151.865 10.3158 151.671 9.98438C151.482 9.65294 151.191 9.40199 150.798 9.23153C150.409 9.05634 149.919 8.96875 149.327 8.96875H147.254V21H144.178ZM152.033 14.3807L155.648 21H152.254L148.717 14.3807H152.033ZM156.749 8.99006V6.45455H168.695V8.99006H164.242V21H161.202V8.99006H156.749ZM169.81 6.45455H173.255L176.572 12.7188H176.714L180.031 6.45455H183.475L178.17 15.858V21H175.116V15.858L169.81 6.45455Z" fill="#F5F5F5"/>
</svg>
